<svg width="28" height="28" viewBox="0 0 28 28" fill="none" xmlns="http://www.w3.org/2000/svg">
<circle cx="14" cy="14" r="13.5" stroke="white"/>
<path d="M9.6 19.6V12.4C9.6 11.1269 10.1057 9.90604 11.0059 9.00586C11.9061 8.10569 13.127 7.59998 14.4 7.59998C15.673 7.59998 16.8939 8.10569 17.7941 9.00586C18.6943 9.90604 19.2 11.1269 19.2 12.4V19.6M9.6 19.6H19.2M9.6 19.6H8M19.2 19.6H20.8M13.6 22H15.2" stroke="white" stroke-linecap="round" stroke-linejoin="round"/>
<path d="M14.3999 7.6C14.8417 7.6 15.1999 7.24183 15.1999 6.8C15.1999 6.35817 14.8417 6 14.3999 6C13.9581 6 13.5999 6.35817 13.5999 6.8C13.5999 7.24183 13.9581 7.6 14.3999 7.6Z" stroke="white"/>
</svg>
